<svg
  xmlns="http://www.w3.org/2000/svg"
  xmlns:xlink="http://www.w3.org/1999/xlink"
  version="1.1"
  x="0px"
  y="0px"
  viewBox="0 0 66 82.5"
  enable-background="new 0 0 66 66"
  xml:space="preserve"
  fill="#7d0"
>
  <g>
    <path
      d="M58.2,46.8L44.8,51l-2.3-0.2c-0.1-4.2-3.6-7.4-7.6-7.4h0l-5.8,0c-5.3-3.8-10.5-4.1-13.9-4.1v17.3L33,62   c1.7,0.5,3.4,0.4,4.9-0.1l26.4-9.2c0.4-0.1,0.7-0.5,0.7-0.9C65,48.2,61.6,45.7,58.2,46.8z"
    />
    <path
      d="M12.2,36.1H2c-0.5,0-1,0.5-1,1v20.8c0,0.5,0.5,1,1,1h10.2c0.5,0,1-0.5,1-1V37.1C13.2,36.5,12.8,36.1,12.2,36.1z"
    />
    <path
      d="M39.1,29.7c0.9-0.9,3-3,8.6-8.5c1.3-1.3,1.3-2.6,1.1-3.5c-0.7-2.7-4.1-4.2-6.5-1.9l-2.4,2.4c-0.4,0.4-1,0.4-1.4,0l-2.5-2.5   c-3.6-3.6-8.9,1.9-5.4,5.4L39.1,29.7z"
    />
    <path
      d="M38.4,42.7c0.2,0.2,0.5,0.3,0.7,0.3s0.5-0.1,0.7-0.3c0.1-0.1,16.8-16.7,16.9-16.8C68.5,14.1,51.3-3.8,39.1,7   C27-3.9,9.7,14.1,21.5,25.9L38.4,42.7z M37.3,14.4l1.8,1.8l1.7-1.7c3.5-3.5,8.7-1.4,9.8,2.8c0.5,2,0,3.9-1.6,5.4   c-1.7,1.7-8.8,8.8-9.3,9.3c-0.2,0.2-0.5,0.3-0.7,0.3c-0.3,0-0.5-0.1-0.7-0.3l-9.3-9.3C23.7,17.2,31.9,8.9,37.3,14.4z"
    />
  </g>
</svg>
