<svg
  xmlns="http://www.w3.org/2000/svg"
  data-name="Layer 1"
  viewBox="0 0 100 125"
  fill="#7d0"
  x="0px"
  y="0px"
>
  <path
    d="M94.90009,86.35406C90.967,79.02234,83.37433,67.22736,83.70557,66.524c3.32989-7.069,3.0119-19.15149.2243-29.80249-1.17084-4.47358-1.83606-6.834-3.864-10.4104-2.19623-3.87323-6.89106-6.37482-10.49793-11.68287-3.67669-5.4107-9.54345-1.071,2.22687,15.25922,5.95929,8.26788-.46191,28.11133-1.77783,14.63281-1.27246-13.03387-10.42462-12.11773-8.10022-5.25573,2.07013,6.11126-1.19232,10.17474.62817,20.91516,1.20014,7.08,2.25128,9.763,6.67212,13.85534.01611.015,2.86371,7.07013,5.39056,12.36939A2.05468,2.05468,0,0,0,76.463,87.57794H94.16174A.83189.83189,0,0,0,94.90009,86.35406Z"
  />
  <path
    d="M29.983,44.52026c-1.31585,13.47852-7.73712-6.36493-1.77777-14.63281,11.77026-16.3302,5.9035-20.66992,2.22681-15.25922C26.8252,19.93628,22.13043,22.43787,19.9342,26.3111c-2.028,3.57635-2.69323,5.93682-3.86407,10.4104-2.78754,10.651-3.10553,22.73346.2243,29.80249C16.62573,67.22736,9.033,79.02234,5.1,86.35406a.83183.83183,0,0,0,.73828,1.22388H23.537a2.05477,2.05477,0,0,0,1.85547-1.17352C27.91925,81.10516,30.76685,74.05,30.783,74.035c4.4209-4.09234,5.472-6.77539,6.67212-13.85534,1.82055-10.74042-1.4419-14.8039.62817-20.91516C40.40771,32.40253,31.25555,31.48639,29.983,44.52026Z"
  />
  <path
    d="M55.95874,16.01746c-2.54187,0-4.75732,1.85943-5.95874,3.90289-1.20142-2.04346-3.41681-3.90289-5.95874-3.90289A6.91432,6.91432,0,0,0,37.127,22.93182C37.127,31.78125,50,40.00513,50,40.00513s12.87311-8.22388,12.87311-17.07331A6.91433,6.91433,0,0,0,55.95874,16.01746Z"
  />
</svg>
