<svg
  xmlns="http://www.w3.org/2000/svg"
  xmlns:xlink="http://www.w3.org/1999/xlink"
  xml:space="preserve"
  version="1.1"
  style="shape-rendering:geometricPrecision;text-rendering:geometricPrecision;image-rendering:optimizeQuality;"
  viewBox="0 0 847 1058.75"
  x="0px"
  y="0px"
  fill-rule="evenodd"
  clip-rule="evenodd"
>
  <defs>
    <style type="text/css">
      .fil0 {
        fill: #f80;
      }
    </style>
  </defs>
  <g>
    <path
      class="fil0"
      d="M799 678c-250,0 -501,0 -751,0 -20,0 -35,-15 -35,-35 0,-38 0,-75 0,-113 0,-20 15,-35 35,-35 250,0 501,0 751,0 19,0 35,15 35,35 0,38 0,75 0,113 0,20 -16,35 -35,35zm0 -326c-250,0 -501,0 -751,0 -20,0 -35,-16 -35,-35 0,-38 0,-76 0,-114 0,-19 15,-35 35,-35 250,0 501,0 751,0 19,0 35,16 35,35 0,38 0,76 0,114 0,19 -16,35 -35,35z"
    />
  </g>
</svg>
