<svg
  xmlns="http://www.w3.org/2000/svg"
  data-name="Layer 1"
  viewBox="0 0 48 60"
  x="0px"
  y="0px"
  fill="#08d"
>
  <path
    d="M28,14.55a30.48,30.48,0,0,1,2.85-1.38,7.16,7.16,0,0,0-2.16-2c-1.49-.92-3.1-6.63-3.75-10.39a1,1,0,0,0-.54-.7.94.94,0,0,0-.88.06L20.53,2a3.61,3.61,0,0,0-1.69,2.77l-.13,1.72a1.64,1.64,0,0,1-.49,1.06l-.3.3A25.36,25.36,0,0,1,28,14.55Z"
  />
  <path
    d="M44,18.29a.92.92,0,0,0-.8-.59,9.85,9.85,0,0,1-1.07-.7c-.25-.17-.39-.27-.5-.33a2.24,2.24,0,0,1-.94-.91c-.13-.2-.3-.45-.54-.76a5.06,5.06,0,0,0-2.73-1.51c-2.84-.83-7.84,1.84-9.79,3C21,8,9.22,7.27,8.7,7.24a.94.94,0,0,0-.83,1.45,12.92,12.92,0,0,1,1.18,5.24A2.88,2.88,0,0,0,10.18,16l1.74,1.33a1,1,0,0,1,.4.79v1.6a2.86,2.86,0,0,0,1.81,2.65l2.17.87a1,1,0,0,1,.63.89L17,25.76a2.88,2.88,0,0,0,1.82,2.57,1,1,0,0,1,.62.71,1,1,0,0,1-.2.85c-3.42,3.9-11.83,6.34-14.32,7A1.32,1.32,0,0,0,4,38a1.34,1.34,0,0,0,.56,1.34l2.15,1.48L6.9,43.2A1.33,1.33,0,0,0,8,44.38l2.89.51,1.59,2.49a1.34,1.34,0,0,0,1.09.62h0a1.35,1.35,0,0,0,1.08-.54L23.31,35.8c.35-.1,1.21-.23,1.71-.31a9,9,0,0,0,1.58-.31A14.45,14.45,0,0,0,30,33.44a18.11,18.11,0,0,0,4.64-4.78,22.73,22.73,0,0,0,2.35-4.35,7.52,7.52,0,0,1,2.59-3.16c.24-.2.49-.41.74-.64l2.35-.73.74-.23,0,0,.14-.05A.93.93,0,0,0,44,18.29Z"
  />
</svg>
