<svg xmlns="http://www.w3.org/2000/svg" xmlns:xlink="http://www.w3.org/1999/xlink" width="1200" height="1200" viewBox="0 0 1200 1200"><rect width="100%" height="100%" fill="#FFFFFF"></rect><g transform="translate(600 600) scale(0.69 0.69) rotate(0) translate(-600 -600)" style="fill:#000000"><svg fill="#000000" xmlns:x="http://ns.adobe.com/Extensibility/1.0/" xmlns:i="http://ns.adobe.com/AdobeIllustrator/10.0/" xmlns:graph="http://ns.adobe.com/Graphs/1.0/" xmlns="http://www.w3.org/2000/svg" xmlns:xlink="http://www.w3.org/1999/xlink" version="1.1" x="0px" y="0px" viewBox="0 0 100 100" style="enable-background:new 0 0 100 100;" xml:space="preserve"><g><g i:extraneous="self"><g><path d="M63.4,15.6c0.5,0.5,0.5,1.2,0.2,1.8l-2.4,4.4c-0.7,1.3,0.7,2.8,2,2.2l4.5-2.1c0.6-0.3,1.3-0.1,1.8,0.4l3.4,3.6     c1,1.1,2.9,0.2,2.7-1.3l-0.6-5c-0.1-0.7,0.3-1.3,0.9-1.6l4.5-2.1c1.4-0.7,1.1-2.7-0.4-3l-4.9-1c-0.7-0.1-1.2-0.7-1.3-1.3     l-0.6-4.9c-0.2-1.5-2.2-1.9-2.9-0.6l-2.4,4.3c-0.3,0.6-1,0.9-1.7,0.8l-4.9-0.9C60,9,59,10.8,60,11.9L63.4,15.6z"></path><path d="M55.1,47c0.5,0.3,0.7,0.8,0.6,1.3l-0.8,3.8c-0.3,1.2,1.1,2,2,1.2l2.9-2.5c0.4-0.3,1-0.4,1.4-0.1l3.3,2     c1,0.6,2.2-0.5,1.7-1.5l-1.5-3.6c-0.2-0.5-0.1-1,0.3-1.4l2.9-2.6c0.9-0.8,0.3-2.2-0.9-2.1l-3.9,0.3c-0.5,0-1-0.2-1.2-0.7     l-1.6-3.5c-0.5-1.1-2.1-0.9-2.3,0.2l-0.9,3.8c-0.1,0.5-0.6,0.9-1.1,0.9l-3.8,0.4c-1.2,0.1-1.5,1.7-0.5,2.3L55.1,47z"></path><path d="M96.9,56.6l-3.4-2.4c-0.5-0.3-0.7-0.9-0.5-1.5l1.1-4c0.4-1.2-1.1-2.2-2.1-1.4l-3.3,2.5c-0.5,0.3-1.1,0.4-1.5,0l-3.5-2.3     c-1.1-0.7-2.4,0.3-2,1.5l1.4,3.9c0.2,0.5,0,1.1-0.4,1.5l-3.3,2.6c-1,0.8-0.4,2.4,0.8,2.4l4.2-0.1c0.6,0,1.1,0.3,1.3,0.9l1.4,3.9     c0.4,1.2,2.1,1.1,2.5-0.1l1.2-4c0.2-0.5,0.7-0.9,1.2-0.9l4.2-0.2C97.5,59,98,57.4,96.9,56.6z"></path><path d="M76.4,75.5c-4.7,0.4-9.6,0-14.5-1.5c-19.8-6.2-30.9-27.2-24.8-47c1.5-4.8,3.9-9.1,6.9-12.8c1.7-2,0-4.9-2.6-4.7     C24.7,11.2,9.8,22.6,4.4,39.8c-7.1,22.8,5.7,47,28.5,54c17.1,5.3,35-0.6,45.9-13.5C80.5,78.4,79,75.3,76.4,75.5z"></path></g></g></g></svg></g></svg>