<svg
  xmlns="http://www.w3.org/2000/svg"
  xmlns:xlink="http://www.w3.org/1999/xlink"
  version="1.1"
  x="0px"
  y="0px"
  viewBox="0 0 100 125"
  enable-background="new 0 0 100 100"
  xml:space="preserve"
  fill="#0dd"
>
  <path
    d="M39.899,10.259c1.643-0.416,3.333-0.732,5.027-0.944c0.422-0.052,0.842-0.098,1.26-0.137l-0.374-3.983  c-0.295,0.027-0.589,0.059-0.882,0.093h-0.002c-0.007,0.001-0.014,0.002-0.021,0.003h-0.001c-0.021,0.001-0.044,0.004-0.065,0.007  h-0.002c-0.006,0.002-0.013,0.003-0.019,0.002C44.819,5.3,44.819,5.3,44.817,5.3c-0.006,0-0.012,0.001-0.017,0.002  c-0.001,0-0.003,0-0.004,0c-0.007,0-0.013,0.002-0.019,0.002c-0.001,0-0.001,0-0.002,0c-0.015,0.002-0.028,0.003-0.042,0.005  c-0.002,0-0.003,0-0.004,0c-0.006,0.001-0.012,0.002-0.017,0.003c-0.002,0.001-0.003,0.001-0.005,0.001  c-0.005,0.001-0.01,0.001-0.016,0.003c-0.001,0-0.004,0-0.005,0.001c-0.005,0-0.011,0.001-0.016,0.002  c-0.002-0.001-0.003-0.001-0.005-0.001c-0.014,0.001-0.026,0.002-0.04,0.004c-0.001,0-0.005,0.001-0.006,0.001  c-0.005,0-0.01,0.001-0.015,0.002c-0.003,0-0.004,0-0.007,0c-0.005,0.002-0.01,0.002-0.014,0.002c-0.002,0-0.005,0.001-0.007,0.001  c-0.005,0-0.01,0.001-0.015,0.002c-0.003,0-0.002,0-0.005,0c-0.014,0.003-0.027,0.005-0.041,0.006c-0.003,0.001-0.004,0-0.007,0  c-0.004,0.001-0.009,0.002-0.014,0.003c-0.002,0-0.004,0-0.007,0.001c-0.004,0-0.008,0.001-0.013,0.001  c-0.003,0.001-0.005,0.001-0.008,0.001c-0.005,0.001-0.01,0.001-0.014,0.002s-0.003,0.001-0.006,0.002c-0.007,0-0.014,0-0.021,0.001  s-0.014,0.001-0.021,0.002c-0.003,0.001-0.004,0.001-0.007,0.001C44.4,5.35,44.395,5.35,44.39,5.351  c-0.003,0-0.005,0.001-0.008,0.001c-0.004,0.001-0.009,0.001-0.013,0.002c-0.002,0-0.006,0-0.008,0.002  c-0.004-0.001-0.01,0.001-0.015,0.001c-0.001,0.001-0.004,0.001-0.005,0.001c-0.007,0.001-0.014,0.002-0.021,0.002  c-0.002,0.001-0.002,0.001-0.004,0.001c-0.005,0.002-0.01,0.002-0.016,0.003c-0.002,0-0.006,0-0.007,0  c-0.004,0-0.009,0.001-0.014,0.001c-0.003,0-0.004,0-0.007,0c-0.005,0.001-0.01,0.003-0.014,0.003c-0.003,0-0.005,0.001-0.008,0.001  c-0.006,0.001-0.012,0.001-0.018,0.002c-0.001,0-0.004,0-0.006,0.001c-0.006,0-0.011,0.002-0.018,0.004c-0.003,0-0.004,0-0.007,0  c-0.005,0-0.009,0.001-0.014,0.001c-0.003,0.001-0.005,0.001-0.008,0.001c-0.004,0.001-0.009,0-0.013,0.003  c-0.003,0-0.005,0-0.008,0.001c-0.005,0-0.01,0.001-0.015,0.002c-0.001,0-0.004,0-0.005,0c-0.006,0.001-0.013,0.002-0.02,0.002  c-0.002,0.001-0.004,0.001-0.005,0.001c-0.005,0.001-0.011,0.002-0.016,0.002c-0.001,0-0.006,0.001-0.008,0.001  c-0.004,0.001-0.008,0.001-0.012,0.002c-0.003,0-0.006,0-0.009,0.002c-0.004,0-0.008,0.002-0.013,0.002  c-0.003,0.001-0.005,0.001-0.008,0c-0.006,0-0.011,0.001-0.017,0.001c-0.001,0-0.002,0-0.003,0.001  c-0.007,0.001-0.014,0.002-0.021,0.003c-0.003,0-0.004,0.001-0.008,0.001c-0.005,0.001-0.009,0.001-0.014,0.002  c-0.003,0.001-0.005,0.001-0.008,0.002c-0.004,0-0.008,0.002-0.012,0.001c-0.003,0-0.005,0.001-0.009,0.001  c-0.003,0.001-0.008,0.002-0.012,0.003c-0.003,0-0.005,0-0.008,0.001c-0.006,0-0.013,0.001-0.019,0.002  c-0.002,0-0.005,0.001-0.007,0.001c-0.005,0-0.009,0.001-0.014,0.001c-0.002,0.001-0.007,0.001-0.009,0  c-0.004,0.001-0.008,0.001-0.012,0.003c-0.003,0-0.006,0.001-0.009,0.001C43.874,5.419,43.87,5.42,43.865,5.42  c-0.001,0.001-0.005,0.001-0.007,0.001c-0.006,0.001-0.011,0.002-0.017,0.002c-0.002,0.001-0.002,0.001-0.004,0.002  c-0.007,0.001-0.014,0.001-0.02,0.001c-0.003,0-0.005,0-0.008,0.001c-0.004,0.001-0.009,0.001-0.013,0.003  c-0.003,0-0.005,0-0.008,0.002c-0.004,0-0.009,0.001-0.013,0.001c-0.003,0.001-0.006,0.001-0.009,0.001  c-0.004,0.001-0.008,0.001-0.013,0.002c-0.002,0-0.004,0-0.007,0.001c-0.006,0-0.011,0.001-0.017,0.003c-0.005,0-0.006,0-0.01,0.001  c-0.005,0.001-0.009,0.001-0.014,0.002c-0.001,0-0.006,0-0.008,0.001c-0.004,0-0.008,0.001-0.012,0.001  c-0.003,0-0.006,0.001-0.009,0.001c-0.005,0.001-0.009,0.002-0.013,0.003c-0.002-0.001-0.008-0.001-0.009,0  c-0.005,0-0.009,0.001-0.014,0.002c-0.003,0.001-0.003,0.001-0.006,0.001c-0.006,0.002-0.013,0.003-0.02,0.003  c-0.003,0.002-0.004,0.002-0.007,0.002c-0.004,0.001-0.009,0.001-0.013,0.003c-0.003,0-0.005,0.001-0.008,0.001  c-0.005-0.001-0.009,0-0.013,0c-0.003,0.001-0.005,0.001-0.008,0c-0.005,0.001-0.009,0.002-0.013,0.003  c-0.003,0-0.006,0.002-0.009,0.002c-0.006,0.001-0.012,0.001-0.019,0.002c-0.002,0-0.003,0.001-0.005,0.001  c-0.005,0.001-0.011,0.002-0.016,0.002c-0.002,0-0.006,0.001-0.007,0.002c-0.005,0-0.01,0.001-0.014,0.001  c-0.003,0.001-0.005,0.001-0.008,0.001c-0.004,0.001-0.008,0.001-0.012,0.002c-0.003,0.001-0.006,0.001-0.009,0.002  C43.458,5.479,43.455,5.48,43.45,5.48c-0.003,0.001-0.005,0.001-0.008,0.001c-0.006,0.001-0.012,0.001-0.019,0.003  c-0.003,0-0.005,0-0.009,0.001c-0.003,0.001-0.008,0.002-0.011,0.002c-0.004,0-0.007,0.001-0.01,0.001  c-0.004,0.001-0.007,0.001-0.011,0.001c-0.003,0.002-0.008,0.002-0.011,0.003c-0.003,0-0.007,0.001-0.01,0.002  c-0.003,0-0.007,0-0.01,0c-0.005,0.001-0.01,0.001-0.014,0.003c-0.003,0-0.008,0.001-0.011,0C43.325,5.498,43.32,5.498,43.316,5.5  C43.313,5.5,43.31,5.5,43.307,5.5c-0.004,0-0.008,0.002-0.012,0.002c-0.003,0.001-0.006,0.001-0.009,0.001  c-0.004,0.001-0.008,0-0.012,0.001c-0.003,0-0.006,0.002-0.009,0.003c-0.004,0.001-0.008,0.002-0.012,0.002  C43.251,5.51,43.25,5.51,43.247,5.51c-0.006,0.001-0.013,0.002-0.019,0.003c-0.003,0.001-0.009,0.003-0.012,0.003  s-0.006,0.001-0.009,0c-0.005,0.001-0.008,0-0.012,0c-0.003,0.001-0.006,0.002-0.009,0.002c-0.003,0.001-0.008,0.001-0.011,0.002  s-0.007,0.002-0.01,0.002c-0.004,0-0.007,0.001-0.012,0.001c-0.002,0.002-0.006,0.002-0.009,0.002  c-0.006,0.001-0.014,0.002-0.02,0.003c-0.003,0-0.006,0.002-0.009,0.002c-0.004,0-0.008,0.001-0.012,0.001  c-0.003,0.001-0.006,0.001-0.008,0.001c-0.003,0.001-0.009,0.002-0.012,0.003c-0.003,0-0.006,0-0.009,0.001  c-0.004,0.001-0.007,0.002-0.012,0.002c-0.002,0-0.005,0.001-0.008,0.001c-0.014,0.002-0.028,0.005-0.042,0.007  c-0.002,0.001-0.004,0.001-0.005,0.001c-0.005,0.001-0.008,0.001-0.013,0.002c-0.003,0-0.005,0.001-0.008,0.001  c-0.003,0.001-0.009,0.003-0.012,0.003s-0.005,0.001-0.008,0.001c-0.004-0.002-0.007,0-0.012,0  c-0.002,0.001-0.003,0.001-0.005,0.001c-0.009,0.001-0.02,0.003-0.029,0.006c-0.001,0-0.002,0-0.003,0  c-0.004,0-0.009,0.001-0.013,0.001c-0.003,0.002-0.005,0.003-0.007,0.003c-0.005,0.001-0.008,0.001-0.013,0.001  c-0.002,0.001-0.005,0.001-0.007,0.002c-0.004,0-0.007,0.002-0.012,0.002c-0.001,0-0.003,0.001-0.005,0.001  c-0.016,0.001-0.032,0.005-0.047,0.008c-0.002,0-0.003,0-0.004,0c-0.005,0-0.01,0-0.015,0.001c-0.002,0-0.003,0-0.005,0  c-0.002,0.003-0.01,0.004-0.013,0.004c-0.002,0-0.004,0.001-0.006,0.001c-0.005,0-0.01,0.002-0.015,0.003c0,0-0.001,0-0.002,0  c-0.017,0.003-0.029,0.004-0.045,0.007c-0.003,0.001-0.005,0.001-0.007,0.001c-0.005,0.001-0.009,0.001-0.014,0.003  c-0.002,0-0.004,0.001-0.006,0.002c-0.004,0-0.011,0.001-0.015,0.001c0,0-0.003,0.001-0.004,0.001  c-0.017,0.002-0.033,0.006-0.049,0.008c-0.001,0-0.001,0-0.002,0c-0.005,0.002-0.01,0.002-0.015,0.002  c-0.002,0.001-0.003,0.001-0.005,0.001c-0.006,0.001-0.009,0.002-0.015,0.003c-0.001,0-0.003,0-0.004,0  c-0.005,0-0.011,0.001-0.016,0.003h-0.001c-0.019,0.003-0.033,0.007-0.052,0.01c-0.001,0-0.001,0-0.002,0  c-0.006,0.001-0.01,0.001-0.016,0.003c-0.001,0-0.002,0-0.004,0.001c-0.006-0.001-0.009,0-0.015,0.001  c-0.001,0-0.002,0.001-0.003,0.001c-0.022,0.005-0.043,0.008-0.066,0.012c-0.001,0-0.002,0-0.003,0  c-0.006,0.001-0.01,0.002-0.015,0.003c-0.001,0-0.002,0-0.003,0.001c-0.023,0.004-0.046,0.007-0.07,0.012l0,0  c-0.006,0.001-0.01,0.002-0.016,0.003c-0.001,0-0.002,0-0.002,0c-0.007,0.001-0.011,0.002-0.018,0.003c0,0,0,0-0.001,0.001  c-0.023,0.003-0.046,0.006-0.07,0.011H42.21c-0.006,0.002-0.012,0.003-0.018,0.002l0,0c-1.107,0.195-2.198,0.43-3.273,0.701  L39.899,10.259L39.899,10.259z M28.224,15.249c1.797-1.126,3.692-2.12,5.643-2.951l-1.573-3.681h-0.001  c-0.008,0.004-0.016,0.008-0.022,0.012c-0.002,0-0.002,0-0.003,0.001c-0.016,0.006-0.032,0.014-0.049,0.021  c-0.001,0.002-0.002,0.002-0.003,0.002c-0.008,0.003-0.016,0.006-0.023,0.009l-0.003,0.001c-0.007,0.004-0.015,0.008-0.021,0.011  l-0.003,0.001c-0.006,0.003-0.014,0.006-0.022,0.009c-0.002,0.001-0.002,0.002-0.004,0.002c-0.007,0.003-0.015,0.007-0.021,0.01  h-0.002c-0.007,0.004-0.015,0.007-0.021,0.01c-0.003,0.002-0.004,0.003-0.007,0.004c-0.007,0.002-0.014,0.006-0.021,0.007  c-0.002,0.001-0.002,0.002-0.004,0.002c-0.006,0.003-0.012,0.007-0.019,0.01c-0.001,0-0.004,0.002-0.005,0.003  c-0.008,0.003-0.015,0.006-0.021,0.009c-0.002,0.001-0.005,0.002-0.006,0.002C32.006,8.743,32,8.746,31.994,8.749  c-0.001,0-0.004,0.001-0.005,0.001c-0.006,0.004-0.014,0.007-0.021,0.01c-0.003,0-0.005,0-0.008,0.002  c-0.006,0.003-0.013,0.006-0.019,0.01c-0.002,0-0.005,0.002-0.006,0.002c-0.006,0.003-0.012,0.005-0.017,0.008  c-0.002-0.001-0.006,0.001-0.007,0.002c-0.008,0.003-0.014,0.006-0.021,0.009c-0.002,0.002-0.005,0.003-0.008,0.004  c-0.006,0.002-0.01,0.006-0.015,0.008c-0.003,0-0.005,0.002-0.008,0.003c-0.007,0.004-0.012,0.007-0.019,0.009  c-0.002,0.001-0.006,0.001-0.009,0.003c-0.004,0.001-0.01,0.004-0.015,0.006s-0.008,0.003-0.011,0.006  c-0.005,0.002-0.01,0.004-0.016,0.007c-0.003,0.001-0.007,0.002-0.009,0.004c-0.006,0.002-0.013,0.005-0.02,0.008  c-0.002,0-0.005,0.003-0.008,0.003c-0.005,0.003-0.009,0.004-0.013,0.007c-0.002,0-0.006,0.003-0.008,0.004  c-0.007,0.003-0.013,0.004-0.018,0.006c-0.003,0.001-0.008,0.005-0.011,0.006c-0.004,0.002-0.008,0.003-0.012,0.005  c-0.006,0.003-0.011,0.005-0.017,0.008c-0.003,0.001-0.008,0.003-0.012,0.004c-0.003,0.003-0.007,0.005-0.01,0.006  c-0.005,0.002-0.011,0.005-0.017,0.008c-0.004,0.001-0.007,0.002-0.01,0.005c-0.004,0.001-0.008,0.003-0.013,0.004  c-0.005,0.004-0.007,0.004-0.01,0.007c-0.006,0.001-0.013,0.003-0.019,0.005c-0.003,0.002-0.006,0.004-0.011,0.005  c-0.003,0.002-0.007,0.003-0.011,0.006c-0.004,0.002-0.012,0.005-0.017,0.008c-0.004,0.001-0.006,0.002-0.01,0.004  s-0.008,0.004-0.012,0.004c-0.003,0.002-0.006,0.004-0.01,0.007c-0.007,0.002-0.011,0.004-0.017,0.008  c-0.003,0.001-0.007,0.003-0.01,0.004c-0.006,0.003-0.012,0.004-0.017,0.007c-0.004,0.002-0.008,0.005-0.012,0.006  c-0.004,0.002-0.008,0.004-0.012,0.006c-0.003,0-0.007,0.002-0.01,0.003C31.439,8.994,31.432,8.997,31.425,9  c-0.003,0.002-0.006,0.003-0.009,0.005c-0.003,0.001-0.009,0.004-0.012,0.005c-0.004,0.001-0.007,0.003-0.01,0.004  c-0.007,0.004-0.013,0.006-0.02,0.009c-0.002,0.001-0.005,0.002-0.008,0.004c-0.004,0.002-0.009,0.003-0.013,0.004  c-0.001,0.001-0.004,0.003-0.006,0.004c-0.007,0.003-0.015,0.007-0.021,0.012c-0.002,0.001-0.004,0.002-0.006,0.003  c-0.007,0.004-0.016,0.008-0.023,0.01c-0.002,0.001-0.004,0.001-0.005,0.002c-0.005,0.003-0.008,0.004-0.015,0.007  c-0.002,0.001-0.005,0.002-0.006,0.004c-0.009,0.003-0.016,0.006-0.022,0.009c-0.002,0.002-0.005,0.003-0.007,0.003  c-0.005,0.002-0.009,0.004-0.013,0.007c-0.001,0-0.002,0.001-0.003,0.001c-0.008,0.002-0.017,0.007-0.025,0.011  c-0.002,0.001-0.004,0.002-0.006,0.003c-0.009,0.005-0.018,0.009-0.028,0.014c-0.001,0-0.001,0-0.002,0  c-0.003,0.002-0.009,0.005-0.013,0.006c-0.003,0.002-0.005,0.002-0.008,0.004c-0.007,0.004-0.016,0.008-0.022,0.011  C31.122,9.139,31.121,9.14,31.12,9.14c-0.005,0.002-0.011,0.004-0.015,0.007h-0.001c-0.011,0.005-0.02,0.009-0.029,0.014  c-0.001,0-0.003,0.002-0.004,0.002c-0.014,0.006-0.028,0.013-0.044,0.02c-0.001,0.001-0.003,0.002-0.004,0.003  c-0.009,0.004-0.018,0.008-0.026,0.012c-0.001,0-0.001,0.001-0.002,0.001C30.99,9.2,30.985,9.202,30.98,9.204c0,0,0,0-0.001,0  c-0.01,0.005-0.019,0.011-0.028,0.016c-0.002,0-0.003,0.001-0.005,0.001c-0.014,0.007-0.028,0.015-0.043,0.021  c-0.002,0.001-0.002,0.002-0.004,0.002c-0.016,0.007-0.03,0.013-0.044,0.021c-0.001,0.001-0.002,0.001-0.002,0.001  c-0.011,0.005-0.018,0.007-0.029,0.013c-0.001,0-0.001,0.001-0.002,0.001c-0.015,0.008-0.027,0.015-0.045,0.022  c0,0.001-0.002,0.001-0.003,0.002c-0.015,0.008-0.03,0.013-0.045,0.021h-0.001c-0.01,0.005-0.019,0.01-0.029,0.015v0.001  c-0.015,0.006-0.031,0.013-0.046,0.021c-0.001,0-0.003,0.001-0.004,0.002c-0.015,0.006-0.029,0.013-0.044,0.021  c-0.001,0-0.002,0.001-0.003,0.001c-0.01,0.005-0.018,0.009-0.028,0.014h-0.001c-0.016,0.009-0.029,0.016-0.044,0.022  c-0.001,0.001-0.003,0-0.004,0.001c-0.015,0.007-0.027,0.014-0.043,0.021c-0.001,0-0.002,0-0.002,0.001  c-0.011,0.005-0.019,0.009-0.029,0.014c-0.001,0.001-0.002,0.001-0.002,0.001c-0.006,0.001-0.01,0.004-0.015,0.007  c-0.001,0-0.002,0-0.004,0.001c-0.008,0.006-0.017,0.01-0.024,0.014c-0.002,0.001-0.004,0.001-0.006,0.003  c-0.015,0.006-0.028,0.013-0.043,0.02c-0.001,0-0.002,0-0.003,0.002c-0.015,0.006-0.029,0.015-0.044,0.021  c0,0-0.001,0.001-0.002,0.001c-0.009,0.004-0.02,0.009-0.028,0.014c-0.001,0-0.002,0.001-0.003,0.001  c-0.016,0.007-0.028,0.013-0.044,0.022c-0.001,0.001-0.003,0.001-0.003,0.002c-0.015,0.006-0.028,0.013-0.043,0.02  c-0.003,0.002-0.003,0.003-0.005,0.003c-0.008,0.004-0.017,0.008-0.023,0.012c-0.002,0.001-0.004,0.001-0.006,0.003  c-0.006,0.001-0.008,0.003-0.015,0.005c-0.001,0.002-0.001,0.002-0.002,0.002c-0.008,0.004-0.018,0.009-0.025,0.013  c-0.002,0-0.004,0.001-0.005,0.003c-0.014,0.007-0.029,0.015-0.042,0.021c-0.002,0-0.004,0.001-0.006,0.003  c-0.008,0.004-0.015,0.007-0.021,0.011c-0.003,0.002-0.004,0.003-0.006,0.003c-0.006,0.002-0.009,0.003-0.014,0.006  c-0.002,0.001-0.004,0.001-0.005,0.002c-0.008,0.004-0.017,0.009-0.023,0.013c-0.003,0.002-0.005,0.002-0.007,0.002  c-0.013,0.007-0.028,0.015-0.042,0.021c-0.002,0.002-0.005,0.002-0.006,0.003c-0.008,0.004-0.015,0.007-0.021,0.011  c-0.002,0.001-0.005,0.002-0.007,0.003c-0.006,0.002-0.008,0.004-0.013,0.006c-0.002,0.001-0.005,0.002-0.007,0.003  c-0.008,0.005-0.013,0.008-0.021,0.012c-0.002,0.001-0.005,0.002-0.007,0.004c-0.004,0.003-0.008,0.005-0.012,0.007  s-0.007,0.004-0.01,0.005c-0.007,0.003-0.014,0.005-0.019,0.008c-0.001,0.001-0.005,0.002-0.007,0.004  c-0.007,0.004-0.012,0.007-0.019,0.01c-0.003,0.002-0.007,0.003-0.01,0.004c-0.004,0.003-0.007,0.004-0.012,0.006  c-0.003,0.002-0.006,0.003-0.009,0.005C29.756,9.797,29.75,9.8,29.746,9.803c-0.003,0.001-0.006,0.003-0.01,0.004  c-0.004,0.003-0.008,0.004-0.011,0.006c-0.004,0.002-0.008,0.004-0.012,0.007c-0.006,0.003-0.012,0.005-0.017,0.009  c-0.004,0.002-0.006,0.004-0.01,0.005c-0.004,0.003-0.007,0.004-0.011,0.005c-0.006,0.002-0.012,0.006-0.018,0.009  c-0.004,0.001-0.006,0.002-0.009,0.004c-0.004,0.002-0.009,0.005-0.013,0.006c-0.004,0.003-0.009,0.005-0.013,0.007  c-0.005,0.002-0.008,0.006-0.013,0.008c-0.003,0.001-0.008,0.003-0.011,0.005c-0.004,0.001-0.009,0.004-0.015,0.007  c-0.004,0.001-0.008,0.004-0.011,0.005c-0.003,0.003-0.008,0.005-0.012,0.008c-0.004,0.001-0.005,0.002-0.009,0.005  c-0.006,0.002-0.013,0.004-0.018,0.008c-0.004,0.001-0.005,0.002-0.009,0.004c-0.006,0.003-0.01,0.004-0.014,0.008  c-0.004,0.001-0.009,0.004-0.012,0.006c-0.005,0.003-0.01,0.004-0.015,0.007c-0.003,0.001-0.006,0.004-0.01,0.005  c-0.005,0.004-0.011,0.006-0.016,0.009c-0.004,0.003-0.004,0.003-0.009,0.005c-0.005,0.003-0.009,0.004-0.014,0.006  c-0.004,0.002-0.004,0.002-0.008,0.004c-0.006,0.005-0.013,0.007-0.02,0.01c-0.001,0.002-0.004,0.003-0.006,0.004  c-0.006,0.003-0.012,0.006-0.016,0.008c-0.003,0.001-0.003,0.001-0.005,0.003c-0.007,0.005-0.014,0.007-0.021,0.011  C29.364,9.998,29.362,9.999,29.359,10c-0.006,0.003-0.013,0.007-0.02,0.011c0,0-0.002,0.002-0.004,0.002  c-0.006,0.004-0.012,0.008-0.017,0.01c-0.003,0.002-0.005,0.003-0.008,0.004c-0.007,0.003-0.013,0.006-0.019,0.01  c-0.003,0.001-0.003,0.001-0.006,0.001c-0.005,0.004-0.011,0.007-0.017,0.009c-0.002,0.002-0.002,0.003-0.005,0.004  c-0.007,0.003-0.015,0.007-0.021,0.011c-0.002,0-0.005,0.001-0.007,0.002c-0.006,0.004-0.014,0.008-0.02,0.012  c-0.003,0.001-0.002,0-0.005,0.001c-0.006,0.003-0.012,0.006-0.019,0.01c0,0.001-0.003,0.002-0.004,0.002  c-0.008,0.005-0.015,0.008-0.021,0.012c-0.001,0-0.002,0-0.004,0.001c-0.006,0.005-0.012,0.008-0.019,0.012  c-0.001,0-0.003,0.001-0.005,0.001c-0.006,0.005-0.014,0.008-0.02,0.012c-0.001,0-0.004,0.001-0.006,0.003  c-0.006,0.002-0.011,0.006-0.018,0.01c-0.001,0-0.001,0-0.002,0.001c-0.008,0.005-0.014,0.008-0.022,0.012  c-0.002,0.001-0.004,0.002-0.005,0.002c-0.007,0.004-0.015,0.006-0.021,0.01c-0.001,0.001,0,0-0.001,0.001  c-0.008,0.004-0.015,0.008-0.022,0.012c0,0.001-0.001,0.001-0.003,0.002c-0.007,0.003-0.014,0.007-0.021,0.011  c-0.002,0.002-0.002,0.002-0.002,0.004c-0.008,0.003-0.016,0.007-0.022,0.011h-0.001c-0.008,0.004-0.015,0.008-0.023,0.013  l-0.002,0.002c-0.015,0.008-0.031,0.015-0.046,0.023l-0.001,0.001c-0.024,0.012-0.048,0.024-0.071,0.037l-0.001,0.002  c-0.934,0.497-1.844,1.024-2.733,1.581L28.224,15.249L28.224,15.249z M18.639,23.59c1.367-1.624,2.871-3.153,4.469-4.544  l-2.626-3.018c-1.765,1.534-3.401,3.202-4.903,4.986L18.639,23.59L18.639,23.59z M12.052,34.459c0.805-1.96,1.771-3.873,2.87-5.689  l-3.42-2.073c-0.01,0.017-0.023,0.037-0.035,0.055c0.001,0.003-0.001,0.004-0.002,0.006c-0.004,0.007-0.009,0.016-0.013,0.023  c-0.001,0.001-0.003,0.003-0.004,0.004c-0.001,0.004-0.005,0.009-0.007,0.012c-0.002,0.004-0.003,0.007-0.004,0.011  c-0.004,0.004-0.007,0.01-0.01,0.015c-0.003,0.003-0.005,0.006-0.008,0.01c-0.002,0.003-0.004,0.006-0.004,0.01  c-0.004,0.005-0.007,0.01-0.011,0.016c-0.002,0.003-0.003,0.006-0.005,0.01c-0.003,0.003-0.005,0.007-0.007,0.012  c-0.002,0.002-0.005,0.007-0.008,0.011c-0.002,0.005-0.005,0.009-0.008,0.014c-0.002,0.003-0.003,0.006-0.005,0.008  c-0.003,0.007-0.008,0.012-0.011,0.019c-0.002,0.002-0.003,0.003-0.003,0.005c-0.004,0.006-0.006,0.011-0.009,0.015  c-0.001,0.004-0.002,0.005-0.004,0.007c-0.004,0.006-0.009,0.013-0.013,0.019c0,0.001-0.003,0.006-0.004,0.007  c-0.004,0.005-0.007,0.012-0.01,0.017C11.32,26.999,11.32,27,11.319,27c-0.004,0.007-0.008,0.014-0.011,0.021  c-0.001,0.002-0.002,0.003-0.004,0.006c-0.004,0.006-0.006,0.014-0.01,0.021c-0.001,0.001-0.002,0.001-0.002,0.002  c-0.005,0.007-0.009,0.013-0.013,0.02c-0.002,0.003-0.001,0.002-0.002,0.005c-0.005,0.006-0.009,0.013-0.013,0.019  c-0.001,0.001-0.002,0.002-0.002,0.004c-0.005,0.007-0.009,0.014-0.013,0.021l0,0c-0.005,0.008-0.009,0.015-0.014,0.022  c0,0.002,0,0.002-0.001,0.003c-0.004,0.007-0.009,0.015-0.014,0.022h-0.001c-0.008,0.016-0.017,0.03-0.026,0.047l-0.001,0.001  c-1.078,1.834-2.03,3.746-2.843,5.727L12.052,34.459L12.052,34.459z M9.117,46.811c0.161-2.113,0.492-4.229,0.982-6.29l-3.892-0.925  c-0.223,0.935-0.416,1.881-0.577,2.836c-0.001,0-0.001,0-0.001,0c-0.003,0.018-0.006,0.034-0.009,0.052c0,0,0,0,0,0.001  c-0.001,0.011-0.004,0.02-0.006,0.032c0,0.001,0,0.002,0,0.002c-0.003,0.016-0.005,0.031-0.008,0.048  c-0.001,0.001-0.001,0.002-0.002,0.003c-0.003,0.018-0.005,0.031-0.007,0.049c0,0.001-0.001,0.003,0,0.004  c-0.001,0.01-0.003,0.021-0.005,0.031c0,0,0,0.001-0.001,0.001c-0.001,0.006-0.002,0.01-0.003,0.016c-0.001,0.001,0,0.002,0,0.003  c-0.001,0.01-0.004,0.021-0.006,0.029c0,0.001,0,0.003,0,0.004c-0.002,0.006-0.002,0.01-0.003,0.016  c0.001,0.002,0.001,0.003,0,0.004c-0.002,0.009-0.004,0.019-0.006,0.027c0.001,0.002,0,0.005,0,0.007  c-0.002,0.014-0.004,0.031-0.007,0.046c0.001,0.002-0.001,0.005-0.003,0.007c-0.001,0.007-0.001,0.016-0.002,0.023  c-0.001,0.003-0.001,0.006-0.002,0.009c0,0.004-0.001,0.008-0.002,0.013c-0.001,0.003-0.002,0.007-0.001,0.011  c-0.001,0.007-0.002,0.013-0.004,0.02c0,0.003-0.001,0.006-0.002,0.009c0,0.004-0.001,0.01-0.002,0.014c0,0.004,0,0.008-0.001,0.01  c-0.001,0.007-0.003,0.012-0.004,0.02c-0.001,0.004-0.001,0.007-0.001,0.01c-0.001,0.006-0.003,0.011-0.003,0.017  c-0.001,0.004-0.001,0.01-0.002,0.014c0,0.005-0.002,0.008-0.002,0.013c-0.001,0.003-0.001,0.006-0.002,0.01  c0.001,0.006-0.001,0.014-0.001,0.02c-0.001,0.003-0.002,0.007-0.002,0.01c-0.001,0.003-0.002,0.009-0.004,0.012  c0,0.006-0.002,0.011-0.002,0.016c-0.001,0.004-0.002,0.011-0.002,0.015c-0.001,0.004-0.001,0.008-0.003,0.013  c0,0.005-0.001,0.007-0.001,0.011c-0.002,0.007-0.001,0.013-0.002,0.02c-0.001,0.003-0.002,0.007-0.003,0.011  c0,0.005-0.002,0.01-0.002,0.015c-0.001,0.003-0.001,0.006-0.001,0.009c0.001,0.006,0,0.013-0.003,0.021  c0,0.003-0.001,0.007-0.002,0.009c-0.001,0.006-0.001,0.011-0.003,0.016c0,0.003-0.001,0.008,0,0.011  c-0.002,0.006-0.003,0.012-0.003,0.018c-0.001,0.002-0.001,0.007-0.002,0.009C5.5,43.241,5.5,43.248,5.498,43.254  c0,0.003,0,0.004-0.001,0.007c0,0.006-0.001,0.011-0.003,0.016c0,0.004-0.001,0.007-0.002,0.01C5.49,43.293,5.49,43.3,5.489,43.307  c0,0.003-0.001,0.005-0.001,0.009c-0.001,0.005-0.002,0.011-0.001,0.016c-0.001,0.003-0.002,0.005-0.002,0.008  c-0.001,0.007-0.001,0.014-0.003,0.021c0,0.003-0.001,0.005-0.002,0.008c0,0.006-0.001,0.013-0.003,0.019  c0.001,0.003,0.001,0.004,0,0.008c-0.001,0.006-0.001,0.013-0.003,0.02c-0.001,0.002-0.002,0.004-0.001,0.007  c-0.002,0.007-0.003,0.015-0.004,0.022c0,0.003-0.001,0.005-0.001,0.008c-0.001,0.006-0.003,0.011-0.003,0.017  c-0.001,0.003-0.001,0.006-0.001,0.008c-0.001,0.007-0.001,0.015-0.002,0.021C5.461,43.5,5.46,43.502,5.46,43.504  c-0.001,0.007-0.002,0.014-0.002,0.02c-0.001,0.002-0.001,0.003-0.002,0.004c-0.001,0.008-0.002,0.015-0.003,0.023  c-0.001,0.003-0.001,0.003-0.001,0.006c-0.001,0.008-0.002,0.016-0.002,0.022v0.002c-0.002,0.008-0.003,0.016-0.005,0.022  c0,0.002-0.001,0.005-0.001,0.006c-0.001,0.008-0.002,0.016-0.002,0.024c-0.001,0.001-0.001,0.002-0.001,0.004  c-0.001,0.007-0.002,0.014-0.004,0.021c-0.001,0.001-0.002,0.003-0.002,0.005c-0.001,0.008-0.001,0.017-0.003,0.023  c0.001,0.002,0,0.003,0,0.004c0,0.008-0.001,0.016-0.002,0.024c-0.001,0.002,0,0-0.001,0.001c0,0.009-0.001,0.017-0.004,0.024  c0,0.001,0,0.003-0.001,0.004c-0.001,0.009-0.001,0.018-0.002,0.025c0,0.001,0,0,0,0.001c-0.002,0.008-0.003,0.017-0.005,0.025  c0.001,0.002,0,0.002,0,0.004c-0.001,0.007-0.002,0.015-0.004,0.023v0.002c-0.001,0.009-0.003,0.017-0.004,0.024v0.002  c-0.001,0.008-0.002,0.017-0.002,0.025c0,0.001,0,0.003,0,0.004c-0.004,0.017-0.006,0.034-0.008,0.05L5.4,43.934  c-0.003,0.019-0.004,0.035-0.008,0.052c0.001,0.001,0.001,0.001,0.001,0.002c-0.002,0.01-0.003,0.018-0.004,0.026v0.001  c-0.002,0.009-0.003,0.018-0.004,0.026v0.001c-0.003,0.009-0.002,0.017-0.003,0.025l-0.001,0.001  c-0.001,0.019-0.003,0.035-0.005,0.053l-0.001,0.001c-0.009,0.064-0.016,0.128-0.024,0.19L5.35,44.315  c-0.07,0.561-0.132,1.127-0.182,1.695v0.001c-0.002,0.018-0.002,0.036-0.005,0.055l0,0c-0.002,0.019-0.003,0.037-0.004,0.056l0,0  c-0.003,0.027-0.006,0.055-0.007,0.082c-0.001,0.001-0.001-0.002-0.001,0c-0.002,0.018-0.002,0.035-0.004,0.053v0.001  c-0.002,0.018-0.003,0.036-0.006,0.054v0.001c-0.001,0.009-0.001,0.018-0.001,0.026L5.14,46.34  c-0.001,0.017-0.004,0.034-0.004,0.052c0,0.002,0,0.002,0,0.003c-0.001,0.018-0.002,0.035-0.005,0.052c0,0.002,0,0.002,0,0.003  c0,0.01-0.001,0.018-0.001,0.026v0.002c-0.001,0.008-0.001,0.015-0.002,0.022c0,0.002,0,0.002-0.001,0.003L9.117,46.811  L9.117,46.811z M6.217,60.408l3.893-0.921c-0.343-1.444-0.608-2.93-0.795-4.412c-0.078-0.628-0.142-1.264-0.192-1.892l-3.987,0.314  c0.01,0.117,0.02,0.234,0.03,0.354v0.002c0.001,0.004,0,0.009,0.001,0.013c0,0.001,0,0.004,0,0.005c0,0.004,0,0.007,0.001,0.009  c0.001,0.003,0.001,0.006,0.002,0.009c-0.001,0.003-0.001,0.005,0,0.008c-0.001,0.003,0,0.007,0,0.01s0,0.005,0.001,0.007  c0,0.005,0.001,0.009,0,0.014c0.001,0.001,0.001,0.002,0.002,0.003c0.035,0.414,0.079,0.827,0.127,1.242c0.001,0,0.001,0,0.001,0  c0.002,0.037,0.006,0.072,0.011,0.108c0,0,0,0.001,0.001,0.002c0.001,0.006,0.001,0.01,0.002,0.016c0,0.001,0,0.002,0,0.003  c0.002,0.006,0.002,0.009,0.003,0.015c0,0.001,0,0.002,0,0.003c0.001,0.006,0.001,0.008,0.001,0.015c0,0.001,0,0.002,0.001,0.003  c-0.001,0.005,0,0.01,0,0.015c0,0.002,0.001,0.003,0.002,0.004c0,0.007,0,0.009,0.001,0.015c0,0.001,0,0.002,0,0.003  c0,0.005,0.001,0.01,0.002,0.015c0,0.001,0,0.002,0,0.004c0.003,0.011,0.003,0.021,0.004,0.034c0.001,0.001,0.001,0.002,0.001,0.004  c0,0.004,0.001,0.009,0.002,0.014c0,0.001,0,0.003,0,0.005c0.002,0.003,0.002,0.009,0.003,0.012c-0.001,0.002,0,0.005,0,0.007  c0.001,0.003,0.001,0.007,0.002,0.01c0,0.003,0,0.005,0,0.007c0,0.004,0,0.008,0.001,0.011c0,0.002,0.001,0.005,0.002,0.007  c0,0.003,0.001,0.008,0.001,0.011c0,0.002,0.001,0.005,0.001,0.007c0,0.003,0.001,0.008,0.001,0.011  c0,0.002,0.001,0.004,0.001,0.007c0,0.004,0.001,0.007,0.002,0.011c0.001,0.002,0.001,0.004,0.001,0.006  c0.001,0.006,0,0.012,0.001,0.018l0,0l0,0c0.001,0.006,0.001,0.013,0.001,0.019c0.001,0.003,0.002,0.004,0.002,0.007  c0.001,0.004,0.001,0.008,0.002,0.012c0,0.003,0,0.004,0.001,0.008c0,0.003,0.001,0.007,0.001,0.011  c0,0.003,0.001,0.005,0.001,0.008c0,0.004,0.001,0.008,0.002,0.012c0,0.001,0.001,0.006,0.001,0.008  c0.001,0.003,0.001,0.007,0.002,0.011c0,0.001,0,0.006,0.001,0.008c0,0.004,0,0.007,0.001,0.011c0,0.003,0.001,0.005,0.002,0.008  c0,0.004,0.001,0.007,0.001,0.011c-0.001,0.003,0,0.006,0,0.009c0.001,0.003,0.001,0.006,0,0.01  c0.001,0.003,0.001,0.006,0.001,0.009c0.001,0.004,0.001,0.007,0.003,0.01c0,0.003,0,0.006,0.001,0.009  c0,0.003,0.001,0.007,0.001,0.01s0.001,0.006,0.001,0.009c0,0.004,0.001,0.006,0.001,0.01c0.001,0.004,0.001,0.004,0.003,0.01  c0.001,0.003,0.001,0.006,0,0.009c0.001,0.003,0.001,0.007,0.002,0.01c0,0.003,0,0.006,0.001,0.009c0,0.003,0.001,0.007,0.001,0.01  c-0.001,0.003,0.001,0.007,0.002,0.01s0.001,0.006,0.001,0.009c0.001,0.006,0.002,0.012,0.002,0.019  c0.001,0.003,0.001,0.006,0.001,0.008c0.001,0.003,0,0.007,0.001,0.01s0.001,0.007,0.002,0.01c0,0.003,0.001,0.007,0.001,0.01  s0.001,0.006,0.001,0.009c0,0.004,0.001,0.007,0.001,0.01c0.001,0.004,0.001,0.007,0.001,0.01c0.002,0.003,0.002,0.007,0.003,0.01  c0.001,0.002,0.001,0.006,0.002,0.009c-0.001,0.003-0.001,0.006-0.001,0.009s0.001,0.007,0.001,0.01s0.001,0.006,0.001,0.009  c0.001,0.003,0.002,0.007,0.002,0.01C5.4,55.982,5.4,55.985,5.4,55.988c0.001,0.003,0.001,0.006,0.002,0.009  c0,0.004,0,0.007,0.002,0.01c0,0.003,0.001,0.007,0.001,0.01c0.001,0.003,0.002,0.006,0.001,0.009c0,0.003,0.001,0.008,0.001,0.011  c0,0.002,0.002,0.005,0.002,0.007C5.41,56.048,5.41,56.05,5.41,56.054c0.001,0.003,0.001,0.006,0.001,0.008  c0.001,0.005,0.001,0.007,0.002,0.011c0,0.003,0,0.006,0.001,0.009c0,0.004,0,0.006,0.001,0.011c0,0.002,0.001,0.004,0.001,0.007  c-0.001,0.004,0,0.007,0,0.011c0,0.002,0.001,0.003,0.001,0.005c0.004,0.015,0.006,0.032,0.008,0.047  c0.001,0.001,0.001,0.002,0.001,0.003c0,0.004,0.001,0.01,0.002,0.015c0,0.001-0.001,0.003-0.001,0.004  c0.001,0.005,0.001,0.009,0.002,0.014c0,0.001,0,0.004,0.001,0.005c0.001,0.005,0.002,0.008,0.003,0.012  c0,0.002,0,0.005,0.001,0.007c0,0.005,0.001,0.008,0.001,0.013c0,0.002,0.001,0.004,0.001,0.006c0,0.004,0.001,0.008,0.001,0.012  c0.001,0.003,0.001,0.005,0,0.007c0.002,0.003,0.002,0.009,0.004,0.012c0,0.002,0,0.005,0.001,0.006  c0,0.003,0.001,0.009,0.001,0.012c0,0.002,0,0.005,0.001,0.007c0,0.005,0.001,0.008,0.001,0.013c0,0.002,0.001,0.004,0.001,0.005  c0,0.005,0.001,0.009,0.002,0.014c0,0.002,0.001,0.003,0.001,0.004c0.001,0.005,0,0.01,0.001,0.015c0,0.001,0,0.002,0,0.003  c0.001,0.005,0.002,0.011,0.003,0.016c0,0.001,0,0.002,0,0.003c0.007,0.034,0.01,0.07,0.016,0.104c0,0,0,0,0,0.001  c0.001,0.006,0.002,0.011,0.003,0.016c0,0.001,0,0.001,0.001,0.002c-0.001,0.005,0.001,0.011,0.001,0.015  c0.001,0.002,0.001,0.003,0.001,0.004c0.001,0.007,0.001,0.009,0.002,0.015c0,0.002,0,0.003,0,0.004  c0.001,0.006,0.002,0.008,0.003,0.015c0,0.001,0,0.002,0.001,0.003c0.001,0.007,0.001,0.009,0.002,0.015  c0,0.002,0,0.003,0.001,0.004c-0.001,0.006,0,0.009,0,0.015c0.001,0.001,0.002,0.002,0.002,0.004c0,0.005,0.001,0.01,0.003,0.015  c0,0.001,0,0.002,0,0.003c0.001,0.006,0.001,0.01,0.002,0.016c0,0,0,0.001,0,0.002c0.011,0.071,0.021,0.142,0.032,0.212  c0,0.001,0,0.001,0,0.001c0.001,0.006,0.002,0.012,0.003,0.018c0,0,0,0,0,0.001c0.001,0.006,0.002,0.011,0.002,0.017  c0.001,0.001,0.001,0.001,0.001,0.001c0.069,0.453,0.145,0.902,0.229,1.35c0,0.001,0,0.001,0,0.001  c0.003,0.012,0.005,0.023,0.006,0.035l0,0c0.002,0.006,0.003,0.012,0.004,0.018l0,0c0.001,0.006,0.001,0.012,0.002,0.017  c0,0.001,0,0.001,0,0.002c0.01,0.047,0.018,0.094,0.026,0.139c0,0.001,0,0.002,0.001,0.003c0.001,0.004,0.002,0.01,0.003,0.015  c0,0.001,0.001,0.002,0.002,0.002c0,0.006,0.001,0.009,0.002,0.016c0.001,0.001,0.001,0.002,0.001,0.003  c0,0.004,0.002,0.01,0.003,0.015c0,0.001,0,0.002-0.001,0.003c0.001,0.005,0.002,0.009,0.004,0.014c0,0.002,0,0.003-0.001,0.005  c0.002,0.003,0.003,0.011,0.003,0.014c0,0.001,0,0.003,0.001,0.004c0.001,0.003,0.002,0.011,0.002,0.014  c0.001,0.002,0.001,0.003,0.002,0.005c0.002,0.005,0.003,0.009,0.004,0.013c0,0.002,0.001,0.004,0.001,0.006  c0.001,0.004,0.002,0.008,0.002,0.012c0.001,0.003,0.001,0.005,0.001,0.007c0.001,0.004,0.001,0.007,0.002,0.012  c0,0.002,0.001,0.004,0.002,0.007c0.001,0.004,0.001,0.007,0.001,0.012c0.001,0.002,0.001,0.004,0.002,0.005  c0,0.004,0.001,0.009,0.002,0.013c0,0.001,0,0.001,0,0.002c0.001,0.006,0.003,0.01,0.004,0.016c0.001,0.002,0.001,0.004,0.001,0.005  c0.002,0.008,0.002,0.016,0.004,0.022c0,0.003,0,0.006,0.002,0.009c0,0.003,0,0.006,0.002,0.009c0,0.003,0.002,0.006,0.002,0.01  c0,0.003,0,0.004,0.001,0.007c0.001,0.004,0.002,0.008,0.002,0.012c0,0.002,0.002,0.005,0.002,0.006  c0.001,0.005,0.001,0.009,0.003,0.013c0.001,0.002,0,0.006,0,0.007c0.001,0.003,0.002,0.007,0.003,0.011  c0,0.002,0,0.006,0.001,0.008c0.001,0.004,0.002,0.007,0.002,0.011c0,0.003,0.002,0.004,0.002,0.007  c0.001,0.004,0.002,0.008,0.003,0.012c0.001,0.003,0.001,0.004,0.001,0.007c0.001,0.004,0.002,0.007,0.002,0.011  c0.001,0.003,0.001,0.005,0,0.008c0.002,0.004,0.002,0.008,0.003,0.013c0,0.001,0.002,0.003,0.003,0.005  c0,0.004,0.001,0.009,0.002,0.014c-0.001,0.002,0,0.003,0,0.004c0.001,0.006,0.002,0.011,0.003,0.017l0.001,0.001  c0.001,0.006,0.002,0.013,0.004,0.019v0.001C5.986,59.393,6.097,59.902,6.217,60.408L6.217,60.408z M11.497,73.313l3.42-2.074  c-1.099-1.813-2.062-3.726-2.864-5.686L8.35,67.067c0.002,0.001,0,0,0.001,0.001c0.003,0.008,0.005,0.015,0.008,0.022  c0,0.001,0.002,0.002,0.002,0.004c0.008,0.016,0.014,0.031,0.021,0.046c0,0.002,0.001,0.004,0.002,0.005  c0.003,0.008,0.005,0.016,0.009,0.023c0,0.001,0,0.001,0,0.003c0.004,0.007,0.006,0.014,0.009,0.021l0.002,0.002  c0.003,0.008,0.006,0.016,0.009,0.023c0.001,0.001,0.001,0.002,0.002,0.004c0.007,0.015,0.015,0.03,0.021,0.047  c0.001,0.001,0.001,0.002,0.001,0.003c0.008,0.018,0.015,0.032,0.02,0.048v0.002c0.003,0.008,0.008,0.016,0.011,0.024l0.001,0.001  c0.007,0.017,0.013,0.033,0.021,0.05l0.001,0.001c0.008,0.017,0.015,0.033,0.021,0.051c0,0.001-0.001-0.001,0,0  c0.003,0.009,0.006,0.018,0.009,0.025l0,0C9.373,69.505,10.371,71.455,11.497,73.313L11.497,73.313z M20.488,83.971l2.623-3.02  c-1.604-1.393-3.109-2.92-4.478-4.539l-3.057,2.579C17.084,80.779,18.728,82.442,20.488,83.971L20.488,83.971z M32.299,91.381  l1.578-3.676c-1.949-0.836-3.847-1.831-5.646-2.96l-2.127,3.389c0.833,0.522,1.683,1.018,2.547,1.484h0.001  c0.017,0.009,0.033,0.018,0.049,0.026l0,0c0.024,0.013,0.048,0.025,0.071,0.039h0.001c0.016,0.008,0.031,0.017,0.049,0.025v0.001  c0.007,0.003,0.015,0.008,0.022,0.012l0.001,0.001c0.016,0.008,0.03,0.016,0.046,0.024h0.002c0.016,0.009,0.031,0.018,0.047,0.025  l0.001,0.001c0.009,0.004,0.016,0.009,0.023,0.013c0.001,0.001,0,0,0.002,0c0.015,0.009,0.031,0.017,0.047,0.024  c0.002,0.001,0.002,0.001,0.004,0.001c0.007,0.004,0.014,0.009,0.021,0.013l0.001,0.001c0.009,0.004,0.016,0.008,0.022,0.011  l0.001,0.001c0.008,0.004,0.015,0.008,0.022,0.012c0.001,0.001,0.002,0.001,0.003,0.002c0.016,0.008,0.03,0.017,0.045,0.023  c0.001,0.001,0.003,0.001,0.004,0.002c0.008,0.004,0.015,0.007,0.022,0.012l0.002,0.001c0.008,0.004,0.014,0.008,0.021,0.012  c0.001,0-0.001,0,0.001,0c0.008,0.004,0.016,0.009,0.022,0.012l0.004,0.002c0.007,0.004,0.015,0.008,0.021,0.012  c0.001,0.001,0,0,0.001,0.001c0.008,0.003,0.015,0.008,0.022,0.011l0.002,0.001c0.007,0.004,0.015,0.008,0.022,0.012  c0.002,0.001,0.003,0.002,0.004,0.002c0.014,0.008,0.028,0.016,0.042,0.023c0.002,0,0.003,0.001,0.004,0.001  c0.009,0.005,0.016,0.008,0.023,0.012l0.002,0.001c0.007,0.005,0.016,0.008,0.021,0.012l0.003,0.001  c0.008,0.004,0.016,0.008,0.022,0.012c0.001,0.001,0.001,0.001,0.002,0.002c0.009,0.003,0.016,0.007,0.023,0.011l0,0  c0.007,0.004,0.015,0.008,0.022,0.012c0.002,0,0.002,0.001,0.003,0.002c0.007,0.004,0.016,0.008,0.021,0.012  c0.002,0,0.002,0,0.003,0.001c0.008,0.004,0.015,0.007,0.022,0.011c0.001,0.001-0.001,0,0.001,0  c0.008,0.005,0.014,0.008,0.021,0.012c0.003,0.002,0.002,0.001,0.005,0.002c0.005,0.005,0.013,0.008,0.02,0.012  c0.002,0.001,0.001,0,0.002,0.001c0.009,0.003,0.015,0.007,0.022,0.011c0.001,0.001,0.002,0.001,0.003,0.002  c0.008,0.003,0.015,0.008,0.022,0.011c0.001,0.001,0.002,0.001,0.003,0.002c0.015,0.007,0.029,0.015,0.044,0.023  c0.002,0,0.001,0,0.002,0.001c0.01,0.003,0.017,0.007,0.024,0.012l0.002,0.001c0.007,0.003,0.015,0.007,0.023,0.011l0.001,0.001  c0.007,0.003,0.015,0.007,0.021,0.011c0.002,0.001,0.003,0.002,0.004,0.002c0.008,0.004,0.015,0.007,0.022,0.012l0,0  c0.01,0.004,0.017,0.008,0.024,0.012c0.001,0,0.002,0.001,0.003,0.001c0.006,0.004,0.013,0.008,0.02,0.011  c0.001,0.001,0.001,0.001,0.003,0.001c0.007,0.004,0.014,0.008,0.021,0.012c0.001,0.001,0,0.001,0.002,0.001  c0.008,0.004,0.014,0.008,0.022,0.011c0.002,0,0.003,0.001,0.004,0.002c0.007,0.004,0.015,0.008,0.021,0.012  c0.001,0,0.001,0,0.003,0c0.007,0.004,0.014,0.008,0.021,0.011l0.003,0.002c0.008,0.003,0.014,0.007,0.021,0.01  c0.002,0.001,0.004,0.002,0.005,0.003c0.007,0.003,0.013,0.007,0.021,0.011h0.001c0.008,0.005,0.015,0.008,0.021,0.011  c0.002,0.001,0.004,0.001,0.005,0.002c0.008,0.004,0.015,0.008,0.021,0.011l0.003,0.002c0.007,0.004,0.015,0.007,0.021,0.011  l0.003,0.001c0.007,0.004,0.013,0.008,0.021,0.011c0.001,0.001,0.003,0.001,0.004,0.002c0.008,0.004,0.016,0.008,0.023,0.012  l0.001-0.001c0.007,0.005,0.015,0.008,0.021,0.011c0.001,0.002,0.002,0.002,0.004,0.003c0.007,0.003,0.015,0.007,0.021,0.01  c0.001,0.001,0.002,0.002,0.003,0.003c0.016,0.007,0.031,0.015,0.046,0.021c0.001,0,0.003,0.001,0.005,0.002  c0.007,0.004,0.015,0.008,0.021,0.011c0.001,0.001,0,0.001,0.002,0.001c0.007,0.004,0.014,0.007,0.021,0.011  c0.002,0,0.003,0.001,0.004,0.002c0.007,0.003,0.015,0.006,0.022,0.011c0.001,0,0.003,0.001,0.005,0.001  c0.014,0.008,0.028,0.016,0.042,0.022c0.001,0.001,0.003,0.001,0.004,0.002c0.007,0.003,0.015,0.007,0.021,0.011l0.003,0.001  c0.007,0.004,0.014,0.008,0.022,0.01l0.002,0.002c0.008,0.003,0.015,0.007,0.022,0.012c0.001,0,0.002,0,0.003,0.001  c0.016,0.007,0.03,0.015,0.045,0.022c0.001,0,0.001,0,0.003,0.001c0.009,0.004,0.016,0.007,0.024,0.011l0.002,0.002  c0.016,0.007,0.031,0.014,0.047,0.022l0.003,0.001c0.007,0.003,0.015,0.007,0.022,0.011h0.001c0.008,0.004,0.016,0.008,0.023,0.012  h0.001c0.008,0.004,0.016,0.008,0.023,0.012c0.001,0.001,0.001,0,0.002,0.001c0.015,0.008,0.03,0.015,0.046,0.022  c0.001,0,0.001,0,0.002,0.001c0.009,0.004,0.016,0.008,0.025,0.011l0,0c0.007,0.005,0.016,0.009,0.023,0.013l0,0  c0.009,0.004,0.016,0.008,0.024,0.011l0.002,0.002c0.016,0.006,0.031,0.014,0.047,0.022c0.001,0,0.001-0.001,0.002,0  c0.008,0.004,0.016,0.008,0.023,0.012h0.001c0.017,0.007,0.032,0.016,0.048,0.022l0.002,0.002c0.017,0.007,0.033,0.016,0.049,0.022  l0,0c0.025,0.011,0.049,0.023,0.073,0.035h0.001c0.025,0.012,0.05,0.023,0.074,0.034H31C31.429,90.999,31.863,91.193,32.299,91.381  L32.299,91.381z M45.813,94.815l0.368-3.984c-2.11-0.194-4.221-0.559-6.275-1.08l-0.983,3.876c0.341,0.088,0.685,0.17,1.028,0.249  l0,0c0.017,0.004,0.034,0.008,0.052,0.012l0.002,0.001c0.017,0.004,0.033,0.007,0.052,0.011c0.001,0.001,0.001,0.001,0.003,0.001  c0.008,0.002,0.016,0.004,0.023,0.006h0.004c0.007,0.003,0.014,0.005,0.021,0.006h0.003c0.008,0.002,0.016,0.004,0.023,0.005  c0.001,0.001,0.003,0.002,0.004,0.002c0.009,0.002,0.016,0.003,0.022,0.005h0.002c0.008,0.003,0.015,0.004,0.022,0.006  c0.003,0,0.004,0.001,0.007,0.001c0.008,0.002,0.016,0.004,0.023,0.005c0.001,0.001,0.002,0.001,0.003,0.001  c0.007,0.002,0.014,0.003,0.02,0.004c0.002,0.001,0.005,0.002,0.006,0.002c0.007,0.002,0.017,0.004,0.023,0.006  c0.001,0,0.004,0,0.006,0c0.006,0.002,0.013,0.004,0.019,0.005c0.003,0,0.003,0,0.006,0c0.007,0.002,0.015,0.004,0.021,0.005  c0.003,0.002,0.005,0.002,0.008,0.003c0.006,0.001,0.013,0.003,0.021,0.004c0.001,0,0.004,0.001,0.005,0.001  c0.006,0.002,0.012,0.003,0.02,0.005c0.002,0,0.005,0.001,0.008,0.002c0.006,0.001,0.013,0.002,0.021,0.004  c0.003,0.001,0.005,0.001,0.008,0.002c0.005,0.001,0.01,0.002,0.015,0.003c0.003,0.001,0.007,0.001,0.01,0.002  c0.006,0.002,0.013,0.003,0.019,0.005c0.004,0.001,0.007,0.001,0.011,0.002s0.009,0.002,0.013,0.003  c0.005,0.001,0.01,0.001,0.015,0.002s0.01,0.003,0.015,0.004C40.505,94,40.51,94,40.513,94.002c0.005,0.001,0.01,0.001,0.014,0.002  c0.006,0.001,0.01,0.002,0.016,0.004c0.005,0.001,0.009,0.002,0.013,0.003s0.007,0.001,0.011,0.002  c0.006,0.001,0.013,0.002,0.019,0.004c0.004,0.001,0.007,0.002,0.011,0.003c0.004,0,0.007,0,0.011,0.002  c0.007,0.001,0.011,0.002,0.018,0.004c0.004,0,0.008,0.001,0.013,0.002c0.004,0.001,0.008,0.002,0.012,0.003  c0.003,0.001,0.007,0.001,0.01,0.002c0.006,0.001,0.014,0.003,0.02,0.004c0.003,0.001,0.007,0.002,0.011,0.003  c0.005,0.001,0.008,0.001,0.013,0.002c0.003,0.001,0.006,0.002,0.01,0.003c0.007,0.001,0.015,0.002,0.021,0.004  c0.003,0,0.006,0.001,0.009,0.002c0.004,0.001,0.008,0.001,0.013,0.002s0.011,0.003,0.017,0.004c0.004,0,0.009,0.002,0.013,0.002  c0.004,0.002,0.007,0.002,0.01,0.002c0.007,0.002,0.015,0.004,0.022,0.005c0.002,0.001,0.004,0.002,0.006,0.002  c0.006,0.002,0.009,0.002,0.014,0.004c0.002,0,0.005-0.001,0.008,0c0.008,0.002,0.015,0.004,0.023,0.006  c0.002,0,0.004,0.001,0.005,0.001c0.007,0.001,0.01,0.002,0.015,0.003c0.002,0,0.004,0.001,0.006,0.001  c0.009,0.003,0.017,0.004,0.025,0.006c0.002,0,0.004,0.001,0.007,0.001c0.008,0.002,0.017,0.003,0.025,0.005  c0.002,0.001,0.004,0.001,0.006,0.002c0.005,0,0.011,0.001,0.015,0.002c0.002,0.001,0.004,0.001,0.006,0.002  c0.009,0.002,0.019,0.004,0.027,0.006c0.001,0,0.003,0,0.004,0c0.005,0.001,0.01,0.003,0.015,0.004c0.001,0,0.002,0,0.003,0  c0.012,0.003,0.019,0.004,0.031,0.006c0.001,0.001,0.002,0.001,0.003,0.001c0.017,0.003,0.031,0.006,0.048,0.01  c0.001,0.001,0.002,0.001,0.004,0.001c0.017,0.003,0.03,0.006,0.048,0.009c0.001,0.001,0.002,0.001,0.002,0.001  c0.012,0.002,0.02,0.004,0.032,0.006c0.001,0.001,0.001,0.001,0.002,0.001c0.017,0.003,0.032,0.006,0.049,0.009  c0,0,0.001,0,0.002,0.001c0.016,0.004,0.032,0.007,0.049,0.01c0,0,0,0,0.001,0c0.507,0.101,1.018,0.191,1.531,0.274l0,0  c0.047,0.008,0.091,0.015,0.136,0.021c0,0,0,0,0.001,0c0.018,0.003,0.033,0.006,0.05,0.008c0.001,0,0.001,0,0.001,0  c0.029,0.005,0.056,0.009,0.084,0.014c0.001,0,0.002,0,0.003,0c0.018,0.003,0.032,0.005,0.05,0.008c0.001,0,0.002,0.001,0.003,0.001  c0.017,0.002,0.033,0.005,0.05,0.007c0.001,0.001,0.002,0,0.002,0.001c0.01,0.001,0.02,0.003,0.029,0.004  c0.001,0,0.003,0,0.005,0.001c0.006,0.001,0.01,0.001,0.016,0.002l0,0c0.01,0.002,0.021,0.004,0.031,0.005c0.002,0,0.004,0,0.006,0  c0.014,0.003,0.031,0.006,0.046,0.008c0.002,0.001,0.004,0.001,0.007,0.002c0.01,0,0.016,0.001,0.023,0.003  c0.003,0,0.006,0.001,0.008,0.001c0.006,0.001,0.008,0.001,0.014,0.002c0.004,0.001,0.007,0.001,0.01,0.002  c0.007,0,0.014,0.002,0.021,0.003c0.003,0.001,0.006,0,0.009,0.001c0.006,0,0.01,0.001,0.014,0.002  c0.006,0.001,0.011,0.002,0.015,0.003c0.006,0,0.011,0,0.017,0.001c0.004,0.001,0.008,0.001,0.011,0.002  c0.006,0.001,0.01,0.002,0.016,0.002c0.005,0.001,0.009,0.002,0.015,0.003c0.004,0,0.008,0.001,0.012,0.002  c0.003,0,0.007,0.001,0.011,0.001c0.006,0.001,0.01,0.002,0.017,0.002c0.005,0,0.009,0.002,0.013,0.003  c0.003,0,0.009,0.001,0.012,0.001c0.005,0.001,0.011,0.002,0.016,0.002c0.005,0.001,0.01,0.002,0.014,0.003  c0.004,0,0.009,0,0.013,0.001s0.007,0.002,0.012,0.002c0.006,0.001,0.013,0.002,0.019,0.003c0.005,0,0.006,0.001,0.01,0.001  c0.005,0,0.011,0.001,0.016,0.002c0.003,0,0.005,0.001,0.008,0.002c0.007,0,0.014,0.002,0.021,0.003c0.004,0,0.007,0,0.01,0.001  c0.006,0.001,0.012,0.002,0.018,0.003c0.003,0,0.006,0,0.009,0c0.006,0.002,0.013,0.002,0.019,0.003  c0.003,0.001,0.005,0.001,0.008,0.001c0.007,0.001,0.014,0.002,0.021,0.003c0.003,0.001,0.005,0.001,0.007,0.001  c0.006,0.002,0.013,0.002,0.019,0.004c0.001-0.001,0.004,0,0.005,0.001c0.008,0.001,0.016,0.001,0.023,0.002  c0.001,0,0.006,0.001,0.007,0.001c0.007,0.001,0.014,0.002,0.02,0.003c0.003,0,0.003,0,0.005,0.001  c0.008,0.001,0.015,0.002,0.022,0.003c0.003,0,0.003,0,0.006,0.001c0.008,0.001,0.017,0.002,0.024,0.003c0.001,0,0.001,0,0.002,0  c0.008,0.001,0.015,0.002,0.022,0.003c0.002,0,0.004,0.001,0.005,0.001c0.008,0.001,0.016,0.002,0.024,0.003h0.003  c0.008,0.002,0.016,0.003,0.024,0.004l0.001,0.001c0.009,0,0.017,0.001,0.025,0.003c0.002,0,0.003,0,0.004,0  c0.017,0.003,0.033,0.005,0.05,0.008l0.002-0.001C44.663,94.696,45.236,94.761,45.813,94.815L45.813,94.815z"
  />
  <path d="M50,5v90c24.853,0,45-20.147,45-45C95,25.147,74.853,5,50,5z" />
</svg>
