<svg
  xmlns="http://www.w3.org/2000/svg"
  viewBox="0 0 60 75"
  x="0px"
  y="0px"
  fill="#0dd"
>
  <path
    d="M30,44A24.0753,24.0753,0,0,1,8.4209,30.43359a1.00009,1.00009,0,0,1,0-.86718,23.94536,23.94536,0,0,1,43.1582,0,1.00009,1.00009,0,0,1,0,.86718A24.0753,24.0753,0,0,1,30,44ZM10.43749,30a21.94548,21.94548,0,0,0,39.125,0,21.94548,21.94548,0,0,0-39.125,0Z"
  />
  <path
    d="M30,40.28516a1.012,1.012,0,0,1-1.01465-1,.98682.98682,0,0,1,.98535-.999v1l.002-1a8.661,8.661,0,0,0,.86718-.043A1.00019,1.00019,0,0,1,31.041,40.2334Q30.52685,40.28467,30,40.28516Z"
  />
  <path
    d="M26.19629,39.47363a.99392.99392,0,0,1-.41113-.08886,10.69528,10.69528,0,0,1-.95313-.49024,1.0003,1.0003,0,1,1,1.00391-1.73047,8.49294,8.49294,0,0,0,.77344.39844,1,1,0,0,1-.41309,1.91113Z"
  />
  <path
    d="M34.61523,39.05957a.99991.99991,0,0,1-.5-1.86621,8.50124,8.50124,0,0,0,.72852-.4707.99936.99936,0,1,1,1.17187,1.61914,10.2444,10.2444,0,0,1-.90234.584A.99358.99358,0,0,1,34.61523,39.05957Z"
  />
  <path
    d="M22.47461,36.43945a.99754.99754,0,0,1-.81055-.41406,10.25406,10.25406,0,0,1-.585-.90234.99967.99967,0,1,1,1.73242-.998,8.51305,8.51305,0,0,0,.47168.72852,1.00018,1.00018,0,0,1-.80859,1.58593Z"
  />
  <path
    d="M38.02441,35.67383a1.00023,1.00023,0,0,1-.8623-1.50391,8.332,8.332,0,0,0,.39746-.77148,1,1,0,1,1,1.82227.82422,10.37416,10.37416,0,0,1-.49317.95507A.99914.99914,0,0,1,38.02441,35.67383Z"
  />
  <path
    d="M20.76074,31.9502a1.00026,1.00026,0,0,1-.99414-.9004c-.0332-.33593-.05176-.67871-.05273-1.02441-.001-.01562-.001-.03125-.001-.04492a.99921.99921,0,0,1,1-.999h0a1.001,1.001,0,0,1,.999.95605c.001.02148.002.042.002.0625a8.43609,8.43609,0,0,0,.043.85059,1.00042,1.00042,0,0,1-.89551,1.09472C20.82715,31.94824,20.794,31.9502,20.76074,31.9502Z"
  />
  <path
    d="M39.28516,31.02051a.98356.98356,0,0,1-1-.98047c0-.02344.002-.08789.0039-.11133-.00293-.2207-.01758-.50976-.04785-.79492a1.00049,1.00049,0,0,1,1.99024-.207A10.54424,10.54424,0,0,1,40.28613,30,1.018,1.018,0,0,1,39.28516,31.02051Z"
  />
  <path
    d="M21.52051,27.207a.99981.99981,0,0,1-.91211-1.4082,10.28505,10.28505,0,0,1,.49121-.958,1.0003,1.0003,0,0,1,1.73047,1.00391,8.17862,8.17862,0,0,0-.39551.7705A.99937.99937,0,0,1,21.52051,27.207Z"
  />
  <path
    d="M38.0459,26.35938a.99887.99887,0,0,1-.86719-.501,8.23563,8.23563,0,0,0-.47168-.72559A.99972.99972,0,0,1,38.32422,23.957a10.06749,10.06749,0,0,1,.58691.90332,1.00019,1.00019,0,0,1-.86523,1.499Z"
  />
  <path
    d="M24.55371,23.47949a.99995.99995,0,0,1-.58887-1.80859,10.13765,10.13765,0,0,1,.90332-.58594.99967.99967,0,1,1,.998,1.73242,8.30373,8.30373,0,0,0-.72559.47071A.996.996,0,0,1,24.55371,23.47949Z"
  />
  <path
    d="M34.64844,22.96a.9954.9954,0,0,1-.501-.13476,8.16972,8.16972,0,0,0-.77051-.39454,1.00018,1.00018,0,0,1,.81641-1.82617,10.2772,10.2772,0,0,1,.958.49024A1.00008,1.00008,0,0,1,34.64844,22.96Z"
  />
  <path
    d="M29.03906,21.76367a1.00014,1.00014,0,0,1-.10058-1.99512A10.5845,10.5845,0,0,1,30,19.71484a1,1,0,0,1,.00977,2H30a8.30781,8.30781,0,0,0-.8584.044C29.10742,21.76172,29.07324,21.76367,29.03906,21.76367Z"
  />
  <path
    d="M30,34.71387a4.71387,4.71387,0,0,1,0-9.42774,1,1,0,0,1,0,2A2.71387,2.71387,0,1,0,32.71387,30a1,1,0,0,1,2,0A4.71873,4.71873,0,0,1,30,34.71387Z"
  />
</svg>
