<svg
  xmlns="http://www.w3.org/2000/svg"
  xmlns:xlink="http://www.w3.org/1999/xlink"
  version="1.1"
  x="0px"
  y="0px"
  viewBox="0 0 100 100"
  xml:space="preserve"
  fill="#0dd"
>
  <path
    d="M94.281,48.014C82.709,31.207,65.143,21.389,50,21.389c-15.143,0-32.709,9.818-44.281,26.625C5.346,48.556,5,49.278,5,50  c0,0.723,0.346,1.443,0.719,1.986C17.291,68.793,34.857,78.611,50,78.611c15.143,0,32.709-9.818,44.281-26.625  C94.654,51.443,95,50.723,95,50C95,49.278,94.654,48.556,94.281,48.014z M50,70.664c-11.412,0-20.664-9.252-20.664-20.664  S38.588,29.336,50,29.336S70.664,38.588,70.664,50S61.412,70.664,50,70.664z"
  />
  <circle cx="50" cy="50" r="13.908" />
</svg>
