<svg
  xmlns="http://www.w3.org/2000/svg"
  data-name="Layer 2"
  viewBox="0 0 100 125"
  x="0px"
  y="0px"
  fill="#fc0"
>
  <path
    d="M66.47,69.9h0a2.73,2.73,0,0,0,3.75,0h0A2.65,2.65,0,0,0,71,68a2.69,2.69,0,0,0-.78-1.89L54.74,50.7l-5.18,5.17a4.21,4.21,0,0,1-5.8,0,10,10,0,0,1,0-14.11l3.89-3.9L43.75,34,23.66,54l4,4L31,54.53a3.71,3.71,0,0,1,5.16,0,3.55,3.55,0,0,1,1.09,2.55,4.62,4.62,0,0,1-.06.65l0,.16s0,.11,0,.16l.15,0,.15,0a4.62,4.62,0,0,1,.65-.06A3.51,3.51,0,0,1,40.67,59a3.6,3.6,0,0,1,1.07,2.58v0a4.2,4.2,0,0,1-.06.61l0,.15,0,.14.13,0,.17,0a3.29,3.29,0,0,1,.54-.05h.1a3.8,3.8,0,0,1,.59.06l.24,0a2.77,2.77,0,0,1,.41.12l.26.11a3.48,3.48,0,0,1,.43.22l.17.12a4.66,4.66,0,0,1,.49.39,3.71,3.71,0,0,1,0,5.18L43.86,70a3.67,3.67,0,0,1,3.77,3.66,4.28,4.28,0,0,1-.07.72v0A3.58,3.58,0,0,1,47,75.64s-.08.09-.11.14a4.58,4.58,0,0,1-.35.42l-.32.32L49.67,80a2.76,2.76,0,0,0,3.79,0,2.67,2.67,0,0,0,0-3.76L50.1,72.84l.35-.35.35-.35,3.36,3.36h0l3.34,3.35a2.73,2.73,0,0,0,3.76,0,2.66,2.66,0,0,0,0-3.77h0l-6.71-6.71.7-.7L62,74.37a2.76,2.76,0,0,0,3.78,0,2.67,2.67,0,0,0,0-3.76h0l-6.7-6.71.35-.35.35-.35,6.71,6.71h0Z"
  />
  <path
    d="M41.38,80l4.45-4.47h0a2.66,2.66,0,0,0,.79-1.89,2.67,2.67,0,0,0-4.55-1.88L37.59,76.2a2.69,2.69,0,0,0,0,3.77A2.77,2.77,0,0,0,41.38,80Z"
  />
  <path
    d="M36.88,75.5,44.45,68a2.67,2.67,0,0,0-1.91-4.55,2.73,2.73,0,0,0-1.88.78l-7.53,7.54a2.66,2.66,0,0,0,0,3.78A2.76,2.76,0,0,0,36.88,75.5Z"
  />
  <path
    d="M32.43,71,40,63.48h0a2.68,2.68,0,0,0,0-3.78,2.56,2.56,0,0,0-1.88-.77,2.59,2.59,0,0,0-1.88.77l-7.54,7.55a2.69,2.69,0,0,0-.78,1.89A2.65,2.65,0,0,0,28.66,71,2.73,2.73,0,0,0,32.43,71Z"
  />
  <path
    d="M35.47,59a2.75,2.75,0,0,0,.74-1.38,3.17,3.17,0,0,0,0-.53,2.63,2.63,0,0,0-.79-1.85,2.59,2.59,0,0,0-1.88-.79,2.67,2.67,0,0,0-1.88.78l-7.54,7.54a2.71,2.71,0,0,0-.78,1.9,2.56,2.56,0,0,0,.78,1.85,2.73,2.73,0,0,0,3.77,0L35.47,59Z"
  />
  <path
    d="M59.91,37.64c-1.58-1.57-2.94-2.71-4.39-3.11-1.67-.45-3.28.17-5.06,1.94l-1.75,1.75-4.25,4.25a9,9,0,0,0,0,12.7,3.21,3.21,0,0,0,4.4,0l5.52-5.51a.47.47,0,0,1,.35-.15.45.45,0,0,1,.34.14l1.18,1.11L68.1,62.59l7.75-8.08Z"
  />
  <path
    d="M88.27,42.93l-23-23a2.2,2.2,0,0,0-3.1,0L57,25a2.2,2.2,0,0,0,0,3.1l23,23a2.25,2.25,0,0,0,3.11,0L88.27,46a2.2,2.2,0,0,0,0-3.1Z"
  />
  <path
    d="M20,51.17l23-23A2.2,2.2,0,0,0,43,25l-5.14-5.14a2.2,2.2,0,0,0-3.1,0l-23,23a2.2,2.2,0,0,0,0,3.1l5.14,5.14A2.25,2.25,0,0,0,20,51.17Z"
  />
</svg>
