<svg
  xmlns="http://www.w3.org/2000/svg"
  xmlns:xlink="http://www.w3.org/1999/xlink"
  version="1.0"
  x="0px"
  y="0px"
  viewBox="0 0 100 100"
  enable-background="new 0 0 100 100"
  xml:space="preserve"
  fill="#a7e"
>
  <path
    d="M84.1942673,39.2634811c-5.1552658,0-9.4786224,3.5537643-10.6592102,8.3445282H59.9378967  c-0.5296402-2.1496048-1.6904678-4.0507774-3.2773743-5.492878L63.0968361,30.91996  c4.6629906,1.2707062,9.7802315-0.664959,12.3467216-5.0317955c3.0725632-5.2278442,1.3253937-11.9567165-3.9025192-15.0292759  s-11.9567146-1.3253222-15.029274,3.9025202c-2.6574707,4.5215597-1.7071381,10.1641321,1.9799347,13.5945768L52.0221825,39.609005  c-0.8768883-0.2255821-1.7961769-0.3455238-2.7434921-0.3455238c-1.0763855,0-2.1155434,0.1576004-3.0985031,0.4463501  L39.52742,28.1380215c3.4964867-3.4480515,4.3513107-8.9500561,1.7496796-13.3766127  c-3.0725594-5.2278423-9.8013611-6.97508-15.0292759-3.9025202s-6.9750805,9.8014317-3.9025211,15.0292759  c2.6225452,4.4622707,7.9084549,6.3857193,12.6515732,4.9436188l6.6332207,11.5377464  c-1.4494324,1.4082527-2.5112267,3.2121201-3.01054,5.2384796H26.8889256  c-1.1805153-4.7907639-5.5039463-8.3445282-10.6592045-8.3445282C10.1658077,39.2634811,5.25,44.1792183,5.25,50.2432022  c0,6.0639114,4.9158077,10.9797211,10.9797211,10.9797211c5.1552582,0,9.4786892-3.5537643,10.6592045-8.3446007h11.7305584  c0.48106,1.9520531,1.4830666,3.6984253,2.8517227,5.0828934l-6.3099785,10.9754066  c-4.7848701-1.5377502-10.162981,0.3781509-12.8159256,4.8920212c-3.0725594,5.2279129-1.3253937,11.9567184,3.9025211,15.029274  c5.2279148,3.0725632,11.9567165,1.325325,15.0292759-3.9025192c2.5707321-4.3740234,1.7656364-9.7973328-1.627224-13.2522125  l6.3179512-10.9894218c1.0449104,0.330143,2.1568642,0.5091591,3.3108635,0.5091591  c1.0250015,0,2.0159378-0.1434402,2.9570732-0.4061775l6.1303139,10.6630135  c-3.5825806,3.4408646-4.4813156,9.0058975-1.8543129,13.4756393c3.0725594,5.2278442,9.8013611,6.9750824,15.029274,3.9025192  c5.2279129-3.0725555,6.9750824-9.8013611,3.9025192-15.029274c-2.5973206-4.4192963-7.8072662-6.3507233-12.51474-4.9865952  l-6.1078224-10.6237755c1.5037613-1.4226265,2.6055145-3.2644348,3.1169014-5.3399506h13.5971603  c1.1805878,4.7908363,5.5039444,8.3446007,10.6592102,8.3446007c6.0639114,0,10.9797134-4.9158096,10.9797134-10.9797211  C95.1739807,44.1792183,90.2581787,39.2634811,84.1942673,39.2634811z"
  />
</svg>
