<svg
  xmlns:x="http://ns.adobe.com/Extensibility/1.0/"
  xmlns:i="http://ns.adobe.com/AdobeIllustrator/10.0/"
  xmlns:graph="http://ns.adobe.com/Graphs/1.0/"
  xmlns="http://www.w3.org/2000/svg"
  xmlns:xlink="http://www.w3.org/1999/xlink"
  version="1.1"
  x="0px"
  y="0px"
  viewBox="0 0 64 64"
  enable-background="new 0 0 64 64"
  xml:space="preserve"
  fill="#a7e"
>
  <metadata>
    <sfw xmlns="http://ns.adobe.com/SaveForWeb/1.0/">
      <slices />
      <sliceSourceBounds
        y="-8160"
        x="-8165"
        width="16389"
        height="16384"
        bottomLeftOrigin="true"
      />
    </sfw>
  </metadata>
  <g>
    <path
      d="M48,9c-4.625,0-8.441,3.507-8.941,8H24.941c-0.5-4.493-4.317-8-8.941-8c-4.962,0-9,4.038-9,9s4.038,9,9,9   c1.268,0,2.473-0.267,3.568-0.741l7.133,12.482C24.462,40.38,23,43.02,23,46c0,4.963,4.038,9,9,9c4.963,0,9-4.037,9-9   c0-2.98-1.462-5.619-3.7-7.258l7.133-12.483C45.527,26.734,46.732,27,48,27c4.963,0,9-4.038,9-9S52.963,9,48,9z M35.568,37.741   C34.474,37.267,33.268,37,32,37s-2.473,0.267-3.567,0.741l-7.133-12.483c1.984-1.453,3.356-3.691,3.642-6.258h14.118   c0.286,2.567,1.658,4.806,3.643,6.259L35.568,37.741z"
    />
  </g>
</svg>
