<svg
  xmlns="http://www.w3.org/2000/svg"
  xmlns:xlink="http://www.w3.org/1999/xlink"
  version="1.1"
  x="0px"
  y="0px"
  viewBox="0 0 100 125"
  enable-background="new 0 0 100 100"
  xml:space="preserve"
>
  <path
    fill="#a7e"
    d="M50.001,27.379c-11.834,0-21.462,10.111-21.462,22.539c0,1.725,0.192,3.463,0.595,5.25l0.564,2.047  l0.003-0.002c0.013,0.051,0.028,0.102,0.042,0.148c0.292,0.873,0.639,1.739,0.994,2.482c0.919,2.228,2.28,5.4,3.559,7.887  c0.878,1.711,1.576,4.469,1.966,7.764c0.139,1.181,0.187,1.989,0.19,2.068l0.037,0.779c0.05,0.983,0.862,1.756,1.846,1.756h23.326  c0.985,0,1.797-0.774,1.848-1.758l0.04-0.779c0.039-0.651,0.429-6.474,2.158-9.826c1.277-2.49,2.638-5.667,3.516-7.804  c0.396-0.834,0.747-1.7,0.999-2.476c0.033-0.078,0.062-0.159,0.083-0.242v0.002l0.585-2.135c0.383-1.706,0.574-3.439,0.574-5.162  C71.465,37.491,61.839,27.379,50.001,27.379z M67.307,54.188l-0.541,1.962c-0.008,0.014-0.011,0.03-0.015,0.041  c-0.242,0.732-0.534,1.455-0.906,2.245c-0.892,2.16-2.209,5.233-3.425,7.604c-1.7,3.294-2.3,8.136-2.494,10.361H40.072  c-0.032-0.368-0.078-0.821-0.138-1.338c-0.312-2.638-0.971-6.343-2.351-9.023c-1.22-2.371-2.537-5.442-3.465-7.691  c-0.312-0.653-0.586-1.331-0.864-2.129l-0.538-1.945c-0.321-1.436-0.484-2.9-0.484-4.355c0-10.391,7.969-18.843,17.766-18.843  c9.797,0,17.77,8.452,17.77,18.843C67.769,51.369,67.606,52.837,67.307,54.188z M60.12,84.55H39.883  c-1.02,0-1.848-0.826-1.848-1.848s0.828-1.848,1.848-1.848H60.12c1.021,0,1.849,0.826,1.849,1.848S61.139,84.55,60.12,84.55z   M60.12,88.944H39.883c-1.02,0-1.848-0.826-1.848-1.848c0-1.023,0.828-1.849,1.848-1.849H60.12c1.021,0,1.849,0.825,1.849,1.849  C61.969,88.118,61.139,88.944,60.12,88.944z M58.662,93.337H41.339c-1.02,0-1.848-0.826-1.848-1.848  c0-1.023,0.829-1.849,1.848-1.849h17.323c1.021,0,1.849,0.825,1.849,1.849C60.511,92.511,59.684,93.337,58.662,93.337z   M41.905,63.125c-0.61,0-1.208-0.303-1.56-0.855c-9.434-14.783-0.181-23.529,1.77-25.131c0.788-0.649,1.954-0.534,2.601,0.255  c0.647,0.789,0.534,1.953-0.255,2.6c-1.528,1.257-8.757,8.135-1.001,20.288c0.549,0.862,0.298,2.003-0.563,2.554  C42.589,63.031,42.246,63.125,41.905,63.125z M90.655,51.528H80.084c-1.021,0-1.849-0.828-1.849-1.848  c0-1.021,0.827-1.848,1.849-1.848h10.571c1.021,0,1.848,0.827,1.848,1.848C92.503,50.7,91.677,51.528,90.655,51.528z M19.918,51.528  H9.346c-1.02,0-1.848-0.828-1.848-1.848c0-1.021,0.828-1.848,1.848-1.848h10.572c1.02,0,1.848,0.827,1.848,1.848  C21.766,50.7,20.938,51.528,19.918,51.528z M49.999,20.931c-1.02,0-1.848-0.827-1.848-1.848V8.512c0-1.021,0.828-1.848,1.848-1.848  c1.021,0,1.848,0.828,1.848,1.848v10.571C51.847,20.104,51.021,20.931,49.999,20.931z M71.454,31.075  c-0.473,0-0.946-0.181-1.307-0.542c-0.722-0.723-0.722-1.89,0-2.613l7.475-7.475c0.722-0.723,1.892-0.723,2.613,0  c0.722,0.722,0.722,1.89,0,2.612l-7.475,7.476C72.399,30.896,71.927,31.075,71.454,31.075z M28.548,30.712  c-0.473,0-0.946-0.18-1.307-0.542l-7.475-7.475c-0.723-0.723-0.723-1.891,0-2.613s1.89-0.723,2.613,0l7.475,7.475  c0.723,0.723,0.723,1.89,0,2.613C29.492,30.532,29.019,30.712,28.548,30.712z M21.071,81.807c-0.474,0-0.947-0.18-1.307-0.541  c-0.723-0.722-0.723-1.892,0-2.613l7.475-7.475c0.723-0.722,1.89-0.722,2.613,0c0.722,0.722,0.722,1.891,0,2.613l-7.475,7.475  C22.017,81.627,21.544,81.807,21.071,81.807z M78.929,82.17c-0.473,0-0.945-0.183-1.307-0.542l-7.475-7.477  c-0.722-0.722-0.722-1.891,0-2.613c0.722-0.722,1.888-0.722,2.613,0l7.475,7.477c0.722,0.725,0.722,1.89,0,2.613  C79.874,81.987,79.401,82.17,78.929,82.17z"
  />
</svg>
